0
SECTION
2
HEADER
9
$INSUNITS
70
4
9
$ACADVER
1
AC1014
9
$HANDSEED
5
FFFF
0
ENDSEC
0
SECTION
2
TABLES
0
TABLE
2
VPORT
5
8
100
AcDbSymbolTable
0
ENDTAB
0
TABLE
2
LTYPE
5
5
100
AcDbSymbolTable
0
LTYPE
5
14
100
AcDbSymbolTableRecord
100
AcDbLinetypeTableRecord
2
BYBLOCK
70
0
0
LTYPE
5
15
100
AcDbSymbolTableRecord
100
AcDbLinetypeTableRecord
2
BYLAYER
70
0
0
ENDTAB
0
TABLE
2
LAYER
5
2
100
AcDbSymbolTable
70
2
0
LAYER
5
50
100
AcDbSymbolTableRecord
100
AcDbLayerTableRecord
2
0
70
0
6
CONTINUOUS
0
ENDTAB
0
TABLE
2
STYLE
5
3
100
AcDbSymbolTable
70
1
0
STYLE
5
11
100
AcDbSymbolTableRecord
100
AcDbTextStyleTableRecord
2
STANDARD
70
0
0
ENDTAB
0
TABLE
2
VIEW
5
6
100
AcDbSymbolTable
70
0
0
ENDTAB
0
TABLE
2
UCS
5
7
100
AcDbSymbolTable
70
0
0
ENDTAB
0
TABLE
2
APPID
5
9
100
AcDbSymbolTable
70
2
0
APPID
5
12
100
AcDbSymbolTableRecord
100
AcDbRegAppTableRecord
2
ACAD
70
0
0
ENDTAB
0
TABLE
2
DIMSTYLE
5
A
100
AcDbSymbolTable
70
1
0
ENDTAB
0
TABLE
2
BLOCK_RECORD
5
1
100
AcDbSymbolTable
70
1
0
BLOCK_RECORD
5
1F
100
AcDbSymbolTableRecord
100
AcDbBlockTableRecord
2
*MODEL_SPACE
0
BLOCK_RECORD
5
1B
100
AcDbSymbolTableRecord
100
AcDbBlockTableRecord
2
*PAPER_SPACE
0
ENDTAB
0
ENDSEC
0
SECTION
2
BLOCKS
0
BLOCK
5
20
100
AcDbEntity
100
AcDbBlockBegin
2
*MODEL_SPACE
0
ENDBLK
5
21
100
AcDbEntity
100
AcDbBlockEnd
0
BLOCK
5
1C
100
AcDbEntity
100
AcDbBlockBegin
2
*PAPER_SPACE
0
ENDBLK
5
1D
100
AcDbEntity
100
AcDbBlockEnd
0
ENDSEC
0
SECTION
2
ENTITIES
0
ARC
5
100
100
AcDbEntity
8
0
100
AcDbCircle
10
202.29429299999998
20
60.348888000000009
30
0.75000000000000011
40
3.0860000000000438
210
0
220
0
230
1
100
AcDbArc
50
240.00000000000023
51
330.00000000000023
0
LINE
5
101
100
AcDbEntity
8
0
100
AcDbLine
10
199.74472200000002
20
58.257478000000013
30
0.75000000000000011
11
200.751293
21
57.676334000000004
31
0.75000000000000011
0
ARC
5
102
100
AcDbEntity
8
0
100
AcDbCircle
10
-184.372345
20
63.149000000000001
30
-0.75000000000000011
40
3.4499999999998083
210
0
220
0
230
-1
100
AcDbArc
50
98.455056999999655
51
119.9999769999997
0
LINE
5
103
100
AcDbEntity
8
0
100
AcDbLine
10
186.09734400000002
20
66.136787999999996
30
0.75000000000000011
11
199.74472200000002
21
58.257478000000013
31
0.75000000000000011
0
LINE
5
104
100
AcDbEntity
8
0
100
AcDbLine
10
204.96684700000003
20
58.80588800000001
30
0.75000000000000011
11
205.46726500000003
21
59.672637000000002
31
0.75000000000000011
0
LINE
5
105
100
AcDbEntity
8
0
100
AcDbLine
10
205.46726500000003
20
59.672637000000002
30
0.75000000000000011
11
218.71203717429441
21
82.721427333638673
31
0.75000000000000011
0
LINE
5
106
100
AcDbEntity
8
0
100
AcDbLine
10
194.17574129032843
20
151.70154600000001
30
0.75000000000000011
11
180.93247200000002
21
151.70154600000001
31
0.75000000000000011
0
LINE
5
107
100
AcDbEntity
8
0
100
AcDbLine
10
176.18393100000003
20
154.201728
30
0.75000000000000011
11
161.80724600000002
21
154.201728
31
0.75000000000000011
0
ARC
5
108
100
AcDbEntity
8
0
100
AcDbCircle
10
177.035662
20
151.11698100000001
30
0.75000000000000011
40
3.0860000000001082
210
0
220
-0
230
1
100
AcDbArc
50
24.605657000000303
51
90.084535999999986
0
ARC
5
109
100
AcDbEntity
8
0
100
AcDbCircle
10
-180.93247200000002
20
152.901546
30
-0.75000000000000011
40
1.1999999999998856
210
0
220
0
230
-1
100
AcDbArc
50
270
51
335.39434300000056
0
LINE
5
110
100
AcDbEntity
8
0
100
AcDbLine
10
177.03110900000001
20
154.202978
30
0.75000000000000011
11
176.18393100000003
21
154.201728
31
0.75000000000000011
0
ARC
5
111
100
AcDbEntity
8
0
100
AcDbCircle
10
120.10499600000001
20
151.11572799999999
30
0.75000000000000011
40
3.0859999999999665
210
0
220
-0
230
1
100
AcDbArc
50
90
51
180
0
ARC
5
112
100
AcDbEntity
8
0
100
AcDbCircle
10
139.60766599999999
20
153.365892
30
0.75000000000000011
40
3.0859999999999665
210
0
220
-0
230
1
100
AcDbArc
50
90
51
151.64086399999991
0
ARC
5
113
100
AcDbEntity
8
0
100
AcDbCircle
10
-135.836039
20
155.40172799999999
30
-0.75000000000000011
40
1.2000000000001525
210
0
220
0
230
-1
100
AcDbArc
50
208.35913599999861
51
270
0
LINE
5
114
100
AcDbEntity
8
0
100
AcDbLine
10
135.836039
20
154.20172799999986
30
0.75000000000000011
11
120.10499600000001
21
154.20172799999995
31
0.75000000000000011
0
LINE
5
115
100
AcDbEntity
8
0
100
AcDbLine
10
117.01899600000004
20
151.11572799999999
30
0.75000000000000011
11
117.018998
21
150.65139399999998
31
0.75000000000000011
0
ARC
5
116
100
AcDbEntity
8
0
100
AcDbCircle
10
-161.80724600000002
20
155.40172799999999
30
-0.75000000000000011
40
1.1999999999999034
210
0
220
0
230
-1
100
AcDbArc
50
270
51
331.64086399999979
0
ARC
5
117
100
AcDbEntity
8
0
100
AcDbCircle
10
158.03561999999999
20
153.365892
30
0.75000000000000011
40
3.0860000000000283
210
0
220
-0
230
1
100
AcDbArc
50
28.359136000000053
51
90
0
LINE
5
118
100
AcDbEntity
8
0
100
AcDbLine
10
158.03561999999999
20
156.45189200000002
30
0.75000000000000011
11
139.60766599999999
21
156.45189199999999
31
0.75000000000000011
0
ARC
5
119
100
AcDbEntity
8
0
100
AcDbCircle
10
-115.81899800000001
20
150.651388
30
-0.75000000000000011
40
1.1999999999999655
210
0
220
0
230
-1
100
AcDbArc
50
179.99971299995363
51
270
0
LINE
5
120
100
AcDbEntity
8
0
100
AcDbLine
10
79.516300999999999
20
145.651354
30
0.75000000000000011
11
79.516301999999996
21
89.683401000000003
31
0.75000000000000011
0
ARC
5
121
100
AcDbEntity
8
0
100
AcDbCircle
10
82.602302000000009
20
89.683401000000003
30
0.75000000000000011
40
3.0860000000000203
210
0
220
0
230
1
100
AcDbArc
50
180.00000085377366
51
270
0
LINE
5
122
100
AcDbEntity
8
0
100
AcDbLine
10
82.602302000000009
20
86.597400999999991
30
0.75000000000000011
11
136.27454499999999
21
86.597401000000005
31
0.75000000000000011
0
ARC
5
123
100
AcDbEntity
8
0
100
AcDbCircle
10
82.602300999999997
20
146.365388
30
0.75000000000000011
40
3.0860000000000021
210
0
220
-0
230
1
100
AcDbArc
50
90
51
180
0
LINE
5
124
100
AcDbEntity
8
0
100
AcDbLine
10
115.81899800000001
20
149.45138800000001
30
0.75000000000000011
11
83.317008000000001
21
149.45138799999998
31
0.75000000000000011
0
LINE
5
125
100
AcDbEntity
8
0
100
AcDbLine
10
79.516300999999999
20
146.365388
30
0.75000000000000011
11
79.516300999999999
21
145.651354
31
0.75000000000000011
0
LINE
5
126
100
AcDbEntity
8
0
100
AcDbLine
10
83.317008000000001
20
149.45138799999998
30
0.75000000000000011
11
82.602300999999997
21
149.45138800000001
31
0.75000000000000011
0
LINE
5
127
100
AcDbEntity
8
0
100
AcDbLine
10
148.62070400000002
20
71.951359999999994
30
0.75000000000000011
11
184.87961100000004
21
66.561503000000002
31
0.75000000000000011
0
ARC
5
128
100
AcDbEntity
8
0
100
AcDbCircle
10
-136.27454499999999
20
85.397401000000016
30
-0.75000000000000011
40
1.2000000000001343
210
0
220
0
230
-1
100
AcDbArc
50
90
51
144.00000000000063
0
ARC
5
129
100
AcDbEntity
8
0
100
AcDbCircle
10
149.05489399999999
20
74.872264999999999
30
0.75000000000000011
40
2.9530000000000003
210
0
220
0
230
1
100
AcDbArc
50
216.0000000000002
51
261.5449430000001
0
LINE
5
130
100
AcDbEntity
8
0
100
AcDbLine
10
137.24536499999999
20
86.102743000000004
30
0.75000000000000011
11
146.66586699999999
21
73.136534999999995
31
0.75000000000000011
0
LINE
5
131
100
AcDbEntity
8
0
100
AcDbLine
10
195.65405000000001
20
98.451312999999999
30
0.75000000000000011
11
195.65405000000001
21
145.80830926169688
31
0.75000000000000011
0
SPLINE
5
132
100
AcDbEntity
8
0
100
AcDbSpline
70
0
71
3
72
8
73
4
74
0
42
0.000000001
43
0.0000000001
44
0.0000000001
40
-2
40
-2
40
-2
40
-2
40
-1
40
-1
40
-1
40
-1
10
196.29294004809702
20
97.369548704577056
30
0.74999999999999833
10
195.94825571679749
20
97.67016188747948
30
0.74999999999999833
10
195.713899140992
20
97.928561876506137
30
0.74999999999999833
10
195.65404954855694
20
98.451312799525127
30
0.74999999999999833
0
LINE
5
133
100
AcDbEntity
8
0
100
AcDbLine
10
215.13272999999998
20
86.513133999999994
30
0.75000000000000011
11
196.29294000000002
21
97.369549000000006
31
0.75000000000000011
0
LINE
5
134
100
AcDbEntity
8
0
100
AcDbLine
10
195.65405000000001
20
145.80830926169688
30
0.75000000000000011
11
195.67572297612938
21
150.19413369525245
31
0.75000000000000011
0
ARC
5
135
100
AcDbEntity
8
0
100
AcDbCircle
10
194.1757412903284
20
150.20154600000001
30
0.75000000000000011
40
1.5000000000000022
210
-0
220
0
230
1
100
AcDbArc
50
-0.28313033795728554
51
89.99999999999892
0
LINE
5
136
100
AcDbEntity
8
0
100
AcDbLine
10
215.13273183522949
20
86.513132942450355
30
0.75000000000000011
11
218.16040235772749
21
84.768440051738438
31
0.75000000000000011
0
ARC
5
137
100
AcDbEntity
8
0
100
AcDbCircle
10
217.41147581701182
20
83.468782775141278
30
0.75000000000000011
40
1.5000000000001021
210
-0
220
0
230
1
100
AcDbArc
50
-29.883426665939588
51
60.04733504618909
0
LINE
5
138
100
AcDbEntity
8
0
100
AcDbLine
10
117.2215865
20
129.68339700000001
30
0.75000000000000011
11
103.22158650000003
21
129.68339700000001
31
0.75000000000000011
0
LINE
5
139
100
AcDbEntity
8
0
100
AcDbLine
10
103.22158650000003
20
129.68339700000001
30
0.75000000000000011
11
103.22158650000003
21
143.68339700000001
31
0.75000000000000011
0
LINE
5
140
100
AcDbEntity
8
0
100
AcDbLine
10
103.22158650000003
20
143.68339700000001
30
0.75000000000000011
11
117.2215865
21
143.68339700000001
31
0.75000000000000011
0
LINE
5
141
100
AcDbEntity
8
0
100
AcDbLine
10
117.2215865
20
143.68339700000001
30
0.75000000000000011
11
117.2215865
21
129.68339700000001
31
0.75000000000000011
0
LINE
5
142
100
AcDbEntity
8
0
100
AcDbLine
10
98.21973100000001
20
129.68339700000001
30
0.75000000000000011
11
84.219731000000024
21
129.68339700000001
31
0.75000000000000011
0
LINE
5
143
100
AcDbEntity
8
0
100
AcDbLine
10
84.219731000000024
20
129.68339700000001
30
0.75000000000000011
11
84.219731000000024
21
143.68339700000001
31
0.75000000000000011
0
LINE
5
144
100
AcDbEntity
8
0
100
AcDbLine
10
84.219731000000024
20
143.68339700000001
30
0.75000000000000011
11
98.21973100000001
21
143.68339700000001
31
0.75000000000000011
0
LINE
5
145
100
AcDbEntity
8
0
100
AcDbLine
10
98.21973100000001
20
143.68339700000001
30
0.75000000000000011
11
98.21973100000001
21
129.68339700000001
31
0.75000000000000011
0
LINE
5
146
100
AcDbEntity
8
0
100
AcDbLine
10
98.219731000000024
20
110.68204950000002
30
0.75000000000000011
11
84.21973100000001
21
110.68204950000002
31
0.75000000000000011
0
LINE
5
147
100
AcDbEntity
8
0
100
AcDbLine
10
84.21973100000001
20
110.68204950000002
30
0.75000000000000011
11
84.21973100000001
21
124.68204950000001
31
0.75000000000000011
0
LINE
5
148
100
AcDbEntity
8
0
100
AcDbLine
10
84.21973100000001
20
124.68204950000001
30
0.75000000000000011
11
98.219731000000024
21
124.68204950000001
31
0.75000000000000011
0
LINE
5
149
100
AcDbEntity
8
0
100
AcDbLine
10
98.219731000000024
20
124.68204950000001
30
0.75000000000000011
11
98.219731000000024
21
110.68204950000002
31
0.75000000000000011
0
LINE
5
150
100
AcDbEntity
8
0
100
AcDbLine
10
98.21973100000001
20
91.680701499999984
30
0.75000000000000011
11
84.219731000000024
21
91.680701499999984
31
0.75000000000000011
0
LINE
5
151
100
AcDbEntity
8
0
100
AcDbLine
10
84.219731000000024
20
91.680701499999984
30
0.75000000000000011
11
84.219731000000024
21
105.6807015
31
0.75000000000000011
0
LINE
5
152
100
AcDbEntity
8
0
100
AcDbLine
10
84.219731000000024
20
105.6807015
30
0.75000000000000011
11
98.21973100000001
21
105.6807015
31
0.75000000000000011
0
LINE
5
153
100
AcDbEntity
8
0
100
AcDbLine
10
98.21973100000001
20
105.6807015
30
0.75000000000000011
11
98.21973100000001
21
91.680701499999984
31
0.75000000000000011
0
LINE
5
154
100
AcDbEntity
8
0
100
AcDbLine
10
117.22158650000003
20
110.68204950000002
30
0.75000000000000011
11
103.2215865
21
110.68204950000002
31
0.75000000000000011
0
LINE
5
155
100
AcDbEntity
8
0
100
AcDbLine
10
103.2215865
20
110.68204950000002
30
0.75000000000000011
11
103.2215865
21
124.68204950000001
31
0.75000000000000011
0
LINE
5
156
100
AcDbEntity
8
0
100
AcDbLine
10
103.2215865
20
124.68204950000001
30
0.75000000000000011
11
117.22158650000003
21
124.68204950000001
31
0.75000000000000011
0
LINE
5
157
100
AcDbEntity
8
0
100
AcDbLine
10
117.22158650000003
20
124.68204950000001
30
0.75000000000000011
11
117.22158650000003
21
110.68204950000002
31
0.75000000000000011
0
LINE
5
158
100
AcDbEntity
8
0
100
AcDbLine
10
117.22158550000003
20
91.680701999999997
30
0.75000000000012834
11
103.22158550000005
21
91.680701999999997
31
0.75000000000012834
0
LINE
5
159
100
AcDbEntity
8
0
100
AcDbLine
10
103.22158550000005
20
91.680701999999997
30
0.75000000000012834
11
103.22158550000005
21
105.68070200000001
31
0.74999999999987188
0
LINE
5
160
100
AcDbEntity
8
0
100
AcDbLine
10
103.22158550000005
20
105.68070200000001
30
0.74999999999987188
11
117.22158550000003
21
105.68070200000001
31
0.75000000000012834
0
LINE
5
161
100
AcDbEntity
8
0
100
AcDbLine
10
117.22158550000003
20
105.68070200000001
30
0.75000000000012834
11
117.22158550000003
21
91.680701999999997
31
0.75000000000012834
0
LINE
5
162
100
AcDbEntity
8
0
100
AcDbLine
10
136.22293400000001
20
134.43373400000002
30
0.75000000000010458
11
122.222934
21
134.43373400000002
31
0.75000000000010458
0
LINE
5
163
100
AcDbEntity
8
0
100
AcDbLine
10
122.222934
20
134.43373400000002
30
0.75000000000010458
11
122.222934
21
148.43373400000002
31
0.74999999999989564
0
LINE
5
164
100
AcDbEntity
8
0
100
AcDbLine
10
122.222934
20
148.43373400000002
30
0.74999999999989564
11
136.22293400000001
21
148.43373400000002
31
0.75000000000010458
0
LINE
5
165
100
AcDbEntity
8
0
100
AcDbLine
10
136.22293400000001
20
148.43373400000002
30
0.75000000000010458
11
136.22293400000001
21
134.43373400000002
31
0.75000000000010458
0
LINE
5
166
100
AcDbEntity
8
0
100
AcDbLine
10
136.22293400000001
20
115.43238649999999
30
0.75000000000000011
11
122.22293400000001
21
115.43238649999999
31
0.75000000000000011
0
LINE
5
167
100
AcDbEntity
8
0
100
AcDbLine
10
122.22293400000001
20
115.43238649999999
30
0.75000000000000011
11
122.22293400000001
21
129.43238650000001
31
0.75000000000000011
0
LINE
5
168
100
AcDbEntity
8
0
100
AcDbLine
10
122.22293400000001
20
129.43238650000001
30
0.75000000000000011
11
136.22293400000001
21
129.43238650000001
31
0.75000000000000011
0
LINE
5
169
100
AcDbEntity
8
0
100
AcDbLine
10
136.22293400000001
20
129.43238650000001
30
0.75000000000000011
11
136.22293400000001
21
115.43238649999999
31
0.75000000000000011
0
LINE
5
170
100
AcDbEntity
8
0
100
AcDbLine
10
136.22293350000004
20
96.431039000000027
30
0.75000000000010481
11
122.22293350000004
21
96.431039000000027
31
0.75000000000010481
0
LINE
5
171
100
AcDbEntity
8
0
100
AcDbLine
10
122.22293350000004
20
96.431039000000027
30
0.75000000000010481
11
122.22293350000004
21
110.43103900000003
31
0.74999999999989542
0
LINE
5
172
100
AcDbEntity
8
0
100
AcDbLine
10
122.22293350000004
20
110.43103900000003
30
0.74999999999989542
11
136.22293350000004
21
110.43103900000003
31
0.75000000000010481
0
LINE
5
173
100
AcDbEntity
8
0
100
AcDbLine
10
136.22293350000004
20
110.43103900000003
30
0.75000000000010481
11
136.22293350000004
21
96.431039000000027
31
0.75000000000010481
0
LINE
5
174
100
AcDbEntity
8
0
100
AcDbLine
10
155.22428200000002
20
136.80890250000002
30
0.75000000000096212
11
141.22428200000002
21
136.80890250000002
31
0.75000000000096212
0
LINE
5
175
100
AcDbEntity
8
0
100
AcDbLine
10
141.22428200000002
20
136.80890250000002
30
0.75000000000096212
11
141.22428200000002
21
150.80890249999999
31
0.7499999999990381
0
LINE
5
176
100
AcDbEntity
8
0
100
AcDbLine
10
141.22428200000002
20
150.80890249999999
30
0.7499999999990381
11
155.22428200000002
21
150.80890249999999
31
0.75000000000096212
0
LINE
5
177
100
AcDbEntity
8
0
100
AcDbLine
10
155.22428200000002
20
150.80890249999999
30
0.75000000000096212
11
155.22428200000002
21
136.80890250000002
31
0.75000000000096212
0
LINE
5
178
100
AcDbEntity
8
0
100
AcDbLine
10
155.22428200000002
20
131.80755500000001
30
0.75000000000000011
11
141.22428200000002
21
131.80755500000001
31
0.75000000000000011
0
LINE
5
179
100
AcDbEntity
8
0
100
AcDbLine
10
141.22428200000002
20
131.80755500000001
30
0.75000000000000011
11
141.22428200000002
21
117.80755500000001
31
0.75000000000000011
0
LINE
5
180
100
AcDbEntity
8
0
100
AcDbLine
10
141.22428200000002
20
117.80755500000001
30
0.75000000000000011
11
155.22428200000002
21
117.80755500000001
31
0.75000000000000011
0
LINE
5
181
100
AcDbEntity
8
0
100
AcDbLine
10
155.22428200000002
20
117.80755500000001
30
0.75000000000000011
11
155.22428200000002
21
131.80755500000001
31
0.75000000000000011
0
LINE
5
182
100
AcDbEntity
8
0
100
AcDbLine
10
155.22428200000002
20
98.806207500000028
30
0.75000000000000011
11
141.22428200000002
21
98.806207500000028
31
0.75000000000000011
0
LINE
5
183
100
AcDbEntity
8
0
100
AcDbLine
10
141.22428200000002
20
98.806207500000028
30
0.75000000000000011
11
141.22428200000002
21
112.8062075
31
0.75000000000000011
0
LINE
5
184
100
AcDbEntity
8
0
100
AcDbLine
10
141.22428200000002
20
112.8062075
30
0.75000000000000011
11
155.22428200000002
21
112.8062075
31
0.75000000000000011
0
LINE
5
185
100
AcDbEntity
8
0
100
AcDbLine
10
155.22428200000002
20
112.8062075
30
0.75000000000000011
11
155.22428200000002
21
98.806207500000028
31
0.75000000000000011
0
LINE
5
186
100
AcDbEntity
8
0
100
AcDbLine
10
174.22562850000003
20
134.43373400000002
30
0.75000000000022515
11
160.22562850000003
21
134.43373400000002
31
0.75000000000022515
0
LINE
5
187
100
AcDbEntity
8
0
100
AcDbLine
10
160.22562850000003
20
134.43373400000002
30
0.75000000000022515
11
160.22562850000003
21
148.43373400000002
31
0.74999999999977507
0
LINE
5
188
100
AcDbEntity
8
0
100
AcDbLine
10
160.22562850000003
20
148.43373400000002
30
0.74999999999977507
11
174.22562850000003
21
148.43373400000002
31
0.75000000000022515
0
LINE
5
189
100
AcDbEntity
8
0
100
AcDbLine
10
174.22562850000003
20
148.43373400000002
30
0.75000000000022515
11
174.22562850000003
21
134.43373400000002
31
0.75000000000022515
0
LINE
5
190
100
AcDbEntity
8
0
100
AcDbLine
10
174.22562949999997
20
115.43238649999999
30
0.7500000000003133
11
160.22562949999997
21
115.43238649999999
31
0.7500000000003133
0
LINE
5
191
100
AcDbEntity
8
0
100
AcDbLine
10
160.22562949999997
20
115.43238649999999
30
0.7500000000003133
11
160.22562949999997
21
129.43238650000001
31
0.74999999999968692
0
LINE
5
192
100
AcDbEntity
8
0
100
AcDbLine
10
160.22562949999997
20
129.43238650000001
30
0.74999999999968692
11
174.22562949999997
21
129.43238650000001
31
0.7500000000003133
0
LINE
5
193
100
AcDbEntity
8
0
100
AcDbLine
10
174.22562949999997
20
129.43238650000001
30
0.7500000000003133
11
174.22562949999997
21
115.43238649999999
31
0.7500000000003133
0
LINE
5
194
100
AcDbEntity
8
0
100
AcDbLine
10
174.22562949999997
20
96.431039000000027
30
0.75000000000000011
11
160.22562949999997
21
96.431039000000027
31
0.75000000000000011
0
LINE
5
195
100
AcDbEntity
8
0
100
AcDbLine
10
160.22562949999997
20
96.431039000000027
30
0.75000000000000011
11
160.22562949999997
21
110.43103900000003
31
0.75000000000000011
0
LINE
5
196
100
AcDbEntity
8
0
100
AcDbLine
10
160.22562949999997
20
110.43103900000003
30
0.75000000000000011
11
174.22562949999997
21
110.43103900000003
31
0.75000000000000011
0
LINE
5
197
100
AcDbEntity
8
0
100
AcDbLine
10
174.22562949999997
20
110.43103900000003
30
0.75000000000000011
11
174.22562949999997
21
96.431039000000027
31
0.75000000000000011
0
LINE
5
198
100
AcDbEntity
8
0
100
AcDbLine
10
193.22697700000003
20
94.055870500000012
30
0.75000000000000011
11
179.22697700000003
21
94.055870500000012
31
0.75000000000000011
0
LINE
5
199
100
AcDbEntity
8
0
100
AcDbLine
10
179.22697700000003
20
94.055870500000012
30
0.75000000000000011
11
179.22697700000003
21
108.0558705
31
0.75000000000000011
0
LINE
5
200
100
AcDbEntity
8
0
100
AcDbLine
10
179.22697700000003
20
108.0558705
30
0.75000000000000011
11
193.22697700000003
21
108.0558705
31
0.75000000000000011
0
LINE
5
201
100
AcDbEntity
8
0
100
AcDbLine
10
193.22697700000003
20
108.0558705
30
0.75000000000000011
11
193.22697700000003
21
94.055870500000012
31
0.75000000000000011
0
LINE
5
202
100
AcDbEntity
8
0
100
AcDbLine
10
193.22697700000003
20
113.05721800000001
30
0.7500000000001007
11
179.22697700000003
21
113.05721800000001
31
0.7500000000001007
0
LINE
5
203
100
AcDbEntity
8
0
100
AcDbLine
10
179.22697700000003
20
113.05721800000001
30
0.7500000000001007
11
179.22697700000003
21
127.05721800000003
31
0.74999999999989952
0
LINE
5
204
100
AcDbEntity
8
0
100
AcDbLine
10
179.22697700000003
20
127.05721800000003
30
0.74999999999989952
11
193.22697700000003
21
127.05721800000003
31
0.7500000000001007
0
LINE
5
205
100
AcDbEntity
8
0
100
AcDbLine
10
193.22697700000003
20
127.05721800000003
30
0.7500000000001007
11
193.22697700000003
21
113.05721800000001
31
0.7500000000001007
0
LINE
5
206
100
AcDbEntity
8
0
100
AcDbLine
10
193.22697700000003
20
146.05856599999998
30
0.75000000000000011
11
179.22697700000003
21
146.05856599999998
31
0.75000000000000011
0
LINE
5
207
100
AcDbEntity
8
0
100
AcDbLine
10
179.22697700000003
20
146.05856599999998
30
0.75000000000000011
11
179.22697700000003
21
132.05856600000001
31
0.75000000000000011
0
LINE
5
208
100
AcDbEntity
8
0
100
AcDbLine
10
179.22697700000003
20
132.05856600000001
30
0.75000000000000011
11
193.22697700000003
21
132.05856600000001
31
0.75000000000000011
0
LINE
5
209
100
AcDbEntity
8
0
100
AcDbLine
10
193.22697700000003
20
132.05856600000001
30
0.75000000000000011
11
193.22697700000003
21
146.05856599999998
31
0.75000000000000011
0
LINE
5
210
100
AcDbEntity
8
0
100
AcDbLine
10
164.72495550000002
20
76.804647000000003
30
0.75000000000009381
11
150.72495549999999
21
76.804647000000003
31
0.75000000000009381
0
LINE
5
211
100
AcDbEntity
8
0
100
AcDbLine
10
150.72495549999999
20
76.804647000000003
30
0.75000000000009381
11
150.72495549999999
21
90.804647000000003
31
0.74999999999990641
0
LINE
5
212
100
AcDbEntity
8
0
100
AcDbLine
10
150.72495549999999
20
90.804647000000003
30
0.74999999999990641
11
164.72495550000002
21
90.804647000000003
31
0.75000000000009381
0
LINE
5
213
100
AcDbEntity
8
0
100
AcDbLine
10
164.72495550000002
20
90.804647000000003
30
0.75000000000009381
11
164.72495550000002
21
76.804647000000003
31
0.75000000000009381
0
LINE
5
214
100
AcDbEntity
8
0
100
AcDbLine
10
183.68403146830585
20
72.480402900258881
30
0.75000000000000011
11
170.16106990025889
21
76.103869531694173
31
0.75000000000000011
0
LINE
5
215
100
AcDbEntity
8
0
100
AcDbLine
10
170.16106990025889
20
76.103869531694173
30
0.75000000000000011
11
173.78453653169419
21
89.626831099741139
31
0.75000000000000011
0
LINE
5
216
100
AcDbEntity
8
0
100
AcDbLine
10
173.78453653169419
20
89.626831099741139
30
0.75000000000000011
11
187.30749809974114
21
86.003364468305847
31
0.75000000000000011
0
LINE
5
217
100
AcDbEntity
8
0
100
AcDbLine
10
187.30749809974114
20
86.003364468305847
30
0.75000000000000011
11
183.68403146830585
21
72.480402900258881
31
0.75000000000000011
0
LINE
5
218
100
AcDbEntity
8
0
100
AcDbLine
10
203.54473732649109
20
67.74811717350893
30
0.75000000000029265
11
191.42038167350893
21
74.748117173508916
31
0.75000000000029265
0
LINE
5
219
100
AcDbEntity
8
0
100
AcDbLine
10
191.42038167350893
20
74.748117173508916
30
0.75000000000029265
11
198.42038167350896
21
86.872472826491077
31
0.74999999999970757
0
LINE
5
220
100
AcDbEntity
8
0
100
AcDbLine
10
198.42038167350896
20
86.872472826491077
30
0.74999999999970757
11
210.54473732649112
21
79.872472826491077
31
0.75000000000029265
0
LINE
5
221
100
AcDbEntity
8
0
100
AcDbLine
10
210.54473732649112
20
79.872472826491077
30
0.75000000000029265
11
203.54473732649109
21
67.74811717350893
31
0.75000000000029265
0
ENDSEC
0
SECTION
2
OBJECTS
0
DICTIONARY
5
C
100
AcDbDictionary
3
ACAD_GROUP
350
D
3
ACAD_MLINESTYLE
350
17
0
DICTIONARY
5
D
100
AcDbDictionary
0
DICTIONARY
5
1A
330
C
100
AcDbDictionary
0
DICTIONARY
5
17
100
AcDbDictionary
0
ENDSEC
0
EOF
